<mxfile host="app.diagrams.net" modified="2023-06-12T11:51:24.224Z" agent="Mozilla/5.0 (Macintosh; Intel Mac OS X 10.15; rv:109.0) Gecko/20100101 Firefox/114.0" version="21.3.8" etag="ekeybC0MProRvWFOhZQ-" type="github">
  <diagram name="Page-1" id="TDW3NuzW05Rz2hYP0Gui">
    <mxGraphModel>
      <root>
        <mxCell id="0" />
        <mxCell id="1" parent="0" />
      </root>
    </mxGraphModel>
  </diagram>
</mxfile>
